<?xml version="1.0" encoding="utf-8"?>
<!-- Generator: Adobe Illustrator 17.0.0, SVG Export Plug-In . SVG Version: 6.00 Build 0)  -->
<!DOCTYPE svg PUBLIC "-//W3C//DTD SVG 1.1//EN" "http://www.w3.org/Graphics/SVG/1.1/DTD/svg11.dtd">
<svg version="1.1" id="LinkedIn_w_x2F__circle" xmlns="http://www.w3.org/2000/svg" xmlns:xlink="http://www.w3.org/1999/xlink"
	 x="0px" y="0px" width="1024px" height="768px" viewBox="0 0 1024 768" enable-background="new 0 0 1024 768" xml:space="preserve"
	>
<path fill="#F8F8F8" d="M512,15.36c-203.597,0-368.64,165.043-368.64,368.64S308.403,752.64,512,752.64S880.64,587.597,880.64,384
	S715.597,15.36,512,15.36z M421.76,536.794h-74.65v-240.23h74.65V536.794z M383.974,267.072c-23.578,0-38.822-16.704-38.822-37.363
	c0-21.082,15.706-37.286,39.782-37.286c24.077,0,38.822,16.205,39.283,37.286C424.218,250.368,409.011,267.072,383.974,267.072z
	 M694.4,536.794h-74.65V403.661c0-30.989-10.829-52.032-37.824-52.032c-20.621,0-32.87,14.246-38.285,27.955
	c-1.997,4.877-2.496,11.789-2.496,18.662v138.509h-74.688V373.171c0-29.99-0.96-55.066-1.958-76.646h64.858l3.418,33.37h1.498
	c9.83-15.667,33.907-38.784,74.189-38.784c49.114,0,85.939,32.909,85.939,103.642v142.041H694.4z"/>
</svg>
