<?xml version="1.0" encoding="utf-8"?>
<!-- Generator: Adobe Illustrator 17.0.0, SVG Export Plug-In . SVG Version: 6.00 Build 0)  -->
<!DOCTYPE svg PUBLIC "-//W3C//DTD SVG 1.1//EN" "http://www.w3.org/Graphics/SVG/1.1/DTD/svg11.dtd">
<svg version="1.1" id="Mail_w_x2F__circle" xmlns="http://www.w3.org/2000/svg" xmlns:xlink="http://www.w3.org/1999/xlink" x="0px"
	 y="0px" width="1024px" height="768px" viewBox="0 0 1024 768" enable-background="new 0 0 1024 768" xml:space="preserve">
<path fill="#F8F8F8" d="M512,15.359c-203.595,0-368.639,165.047-368.639,368.641S308.405,752.639,512,752.639
	S880.639,587.595,880.639,384S715.595,15.359,512,15.359z M367.283,268.8h288.752c15.314,0,7.432,19.65-0.902,24.694
	c-8.334,5.025-123.698,74.766-127.999,77.353s-9.867,3.825-15.466,3.825c-5.602,0-11.168-1.237-15.466-3.825
	c-4.301-2.587-119.667-72.328-128.002-77.353C359.867,288.45,351.983,268.8,367.283,268.8z M665.6,480
	c0,8.063-9.666,19.2-17.067,19.2H375.467c-7.402,0-17.067-11.137-17.067-19.2c0,0,0-136.491,0-140.034c0-3.525-0.066-8.119,6.6-4.2
	c9.466,5.55,125.4,73.922,131.201,77.334c5.798,3.413,9.865,3.823,15.466,3.823c5.599,0,9.666-0.41,15.466-3.823
	c5.801-3.412,122.4-71.766,131.866-77.316c6.666-3.919,6.6,0.675,6.6,4.2C665.6,343.528,665.6,480,665.6,480z"/>
</svg>
